<svg width="80" height="80" viewBox="0 0 80 80" fill="none" xmlns="http://www.w3.org/2000/svg">
<path fill-rule="evenodd" clip-rule="evenodd" d="M39.9992 0C17.9079 0 0 17.9079 0 39.9992C0 62.0905 17.9079 80 39.9992 80C62.0905 80 80 62.0905 80 39.9992C80 17.9079 62.0905 0 39.9992 0Z" fill="#EA345D"/>
<path fill-rule="evenodd" clip-rule="evenodd" d="M27.1362 51.5192L39.9047 43.6936L52.6719 51.5192H27.1362Z" fill="white"/>
<path fill-rule="evenodd" clip-rule="evenodd" d="M18.1401 29.0979L39.0039 43.1043L25.6746 51.2732L18.1401 29.0979Z" fill="white"/>
<path fill-rule="evenodd" clip-rule="evenodd" d="M39.4144 30.7737V42.2089L33.5732 38.2881L39.4144 30.7737Z" fill="white"/>
<path fill-rule="evenodd" clip-rule="evenodd" d="M34.4088 35.6344L32.7656 37.7467L21.6392 30.2766L34.4088 35.6344Z" fill="white"/>
<path fill-rule="evenodd" clip-rule="evenodd" d="M40.3823 30.7661L46.232 38.2903L40.3823 42.2173V30.7661Z" fill="white"/>
<path fill-rule="evenodd" clip-rule="evenodd" d="M58.1693 30.2766L47.038 37.7492L45.396 35.6356L58.1693 30.2766Z" fill="white"/>
<path fill-rule="evenodd" clip-rule="evenodd" d="M54.1329 51.2745L40.8037 43.1043L61.6699 29.0979L54.1329 51.2745Z" fill="white"/>
</svg>
