<svg width="35" height="32" viewBox="0 0 35 32" fill="none" xmlns="http://www.w3.org/2000/svg">
<g clip-path="url(#clip0)">
<path d="M17.3589 0.187296C17.3553 0.181443 17.3552 0.182493 17.3589 0.187347C17.3589 0.18733 17.3589 0.187313 17.3589 0.187296ZM17.6414 0.187296C17.6413 0.187313 17.6413 0.187331 17.6413 0.187348C17.645 0.182494 17.6449 0.181443 17.6414 0.187296ZM17.6414 5.92685C17.6449 5.9327 17.645 5.93165 17.6413 5.92679C17.6413 5.92681 17.6413 5.92683 17.6414 5.92685ZM17.3589 5.92685C17.3589 5.92683 17.3589 5.92681 17.3589 5.92679C17.3552 5.93165 17.3553 5.9327 17.3589 5.92685ZM17.5001 6.36414C17.3349 6.36414 17.2459 6.23886 17.214 6.18639C17.1736 6.11982 17.1444 6.0383 17.1217 5.95727C17.075 5.79136 17.0375 5.56186 17.0076 5.28785C16.9473 4.73609 16.9136 3.96187 16.9136 3.05707C16.9136 2.15227 16.9473 1.37806 17.0076 0.826295C17.0375 0.552287 17.075 0.322781 17.1217 0.156877C17.1444 0.075843 17.1736 -0.00567941 17.214 -0.0722421C17.2459 -0.124718 17.3349 -0.249992 17.5001 -0.249992C17.6653 -0.249992 17.7544 -0.124718 17.7862 -0.0722421C17.8267 -0.00567941 17.8558 0.075843 17.8786 0.156877C17.9252 0.322781 17.9627 0.552287 17.9926 0.826295C18.0529 1.37806 18.0866 2.15227 18.0866 3.05707C18.0866 3.96187 18.0529 4.73609 17.9926 5.28785C17.9627 5.56186 17.9252 5.79136 17.8786 5.95727C17.8558 6.0383 17.8267 6.11982 17.7862 6.18639C17.7544 6.23886 17.6653 6.36414 17.5001 6.36414Z" fill="white" stroke="white" stroke-width="5"/>
<path d="M9.83651 9.24533L9.83065 9.25125L9.82441 9.25676C9.74743 9.32475 9.65873 9.33146 9.60834 9.32871C9.55663 9.32587 9.51006 9.31176 9.47527 9.29876C9.40439 9.27228 9.32675 9.22884 9.24976 9.18009C9.09255 9.08054 8.89175 8.92884 8.66701 8.74571C8.21531 8.37765 7.6423 7.8623 7.08025 7.32701C6.51802 6.79154 5.96245 6.232 5.54602 5.7746C5.3383 5.54645 5.16173 5.33993 5.03569 5.17253C4.973 5.08926 4.91898 5.01066 4.87948 4.94072C4.85972 4.90573 4.84112 4.86859 4.82691 4.83097C4.81377 4.79615 4.79834 4.74542 4.79834 4.68759C4.79834 4.59668 4.80898 4.48952 4.85787 4.3952C4.91602 4.28302 5.0208 4.20523 5.15593 4.19198C5.26831 4.18097 5.37645 4.21735 5.46491 4.25876C5.55843 4.30254 5.66079 4.3669 5.77125 4.44686C6.2075 4.76264 6.89541 5.41541 7.91824 6.44777C8.51215 7.04722 9.03222 7.63199 9.38879 8.08728C9.5661 8.31368 9.70831 8.51478 9.79873 8.67316C9.84295 8.75062 9.88203 8.83024 9.90355 8.90436C9.91422 8.94114 9.92461 8.9899 9.92226 9.04351C9.91986 9.0984 9.90259 9.17864 9.83651 9.24533ZM9.42425 9.04721C9.42427 9.04722 9.4242 9.04684 9.424 9.04606C9.42414 9.04681 9.42424 9.0472 9.42425 9.04721ZM9.65606 8.83234C9.65606 8.83233 9.65575 8.83224 9.65515 8.83209C9.65577 8.83228 9.65607 8.83235 9.65606 8.83234Z" fill="white" stroke="white" stroke-width="5"/>
<path d="M27.1469 6.38236L27.1474 6.38181L27.148 6.38126C28.1377 5.36541 28.8097 4.72824 29.2397 4.42399C29.3487 4.34688 29.4505 4.28501 29.5443 4.24374C29.6335 4.20452 29.7427 4.17147 29.8558 4.1873C29.9895 4.20602 30.0891 4.28707 30.144 4.39629C30.1912 4.49002 30.202 4.59592 30.202 4.68751C30.202 4.788 30.1542 4.88191 30.1226 4.93854C30.0838 5.00789 30.0309 5.08551 29.9695 5.16745C29.8462 5.33218 29.6736 5.53472 29.4708 5.75789C29.0643 6.20534 28.5223 6.75119 27.9747 7.27188C27.4273 7.79235 26.8698 8.29198 26.432 8.64594C26.2143 8.8219 26.0195 8.96735 25.8673 9.06128C25.7932 9.10702 25.7162 9.14872 25.6448 9.17272C25.6099 9.18446 25.5603 9.19761 25.5045 9.19646C25.4476 9.19529 25.3609 9.17768 25.2928 9.10349C25.234 9.04078 25.2159 8.96695 25.2126 8.91278C25.2093 8.859 25.219 8.81024 25.2293 8.77359C25.2499 8.70012 25.288 8.62234 25.3304 8.54789C25.4174 8.3955 25.5546 8.20265 25.7253 7.98511C26.0688 7.54737 26.5714 6.98031 27.1469 6.38236ZM25.4825 8.69969C25.4825 8.69971 25.483 8.69959 25.484 8.69926C25.4831 8.6995 25.4825 8.69967 25.4825 8.69969ZM25.7102 8.91077C25.7102 8.91076 25.7103 8.91037 25.7104 8.90962C25.7102 8.9104 25.7102 8.91078 25.7102 8.91077Z" fill="white" stroke="white" stroke-width="5"/>
<path d="M0.188519 16.8443C0.18853 16.8443 0.188542 16.8443 0.188553 16.8443C0.184207 16.841 0.183317 16.8411 0.188519 16.8443ZM5.86917 17.1233C5.86916 17.1233 5.86915 17.1233 5.86914 17.1233C5.87348 17.1266 5.87438 17.1265 5.86917 17.1233ZM0.188519 17.1233C0.183316 17.1265 0.184208 17.1266 0.188554 17.1233C0.188542 17.1233 0.188531 17.1233 0.188519 17.1233ZM3.02885 17.5735C2.13227 17.5735 1.36492 17.5394 0.817908 17.4785C0.546296 17.4483 0.31849 17.4104 0.153625 17.3632C0.073083 17.3402 -0.008163 17.3106 -0.0745427 17.2695C-0.128053 17.2364 -0.25 17.147 -0.25 16.9838C-0.25 16.8206 -0.128053 16.7312 -0.0745427 16.6981C-0.008163 16.657 0.073083 16.6275 0.153625 16.6044C0.31849 16.5572 0.546296 16.5193 0.817908 16.4891C1.36492 16.4282 2.13227 16.3941 3.02885 16.3941C3.92542 16.3941 4.69277 16.4282 5.23978 16.4891C5.5114 16.5193 5.7392 16.5572 5.90407 16.6044C5.98461 16.6275 6.06586 16.657 6.13223 16.6981C6.18575 16.7312 6.30769 16.8206 6.30769 16.9838C6.30769 17.147 6.18575 17.2364 6.13223 17.2695C6.06586 17.3106 5.98461 17.3402 5.90407 17.3632C5.7392 17.4104 5.5114 17.4483 5.23978 17.4785C4.69277 17.5394 3.92542 17.5735 3.02885 17.5735Z" fill="white" stroke="white" stroke-width="5"/>
<path d="M29.1309 16.8443C29.1309 16.8443 29.1309 16.8443 29.1309 16.8443C29.1266 16.841 29.1257 16.8411 29.1309 16.8443ZM34.8116 17.1233C34.8116 17.1233 34.8115 17.1233 34.8115 17.1233C34.8159 17.1266 34.8168 17.1265 34.8116 17.1233ZM29.1309 17.1233C29.1257 17.1265 29.1266 17.1266 29.1309 17.1233C29.1309 17.1233 29.1309 17.1233 29.1309 17.1233ZM31.9712 17.5735C31.0747 17.5735 30.3073 17.5394 29.7603 17.4785C29.4887 17.4483 29.2609 17.4104 29.096 17.3632C29.0155 17.3402 28.9342 17.3106 28.8678 17.2695C28.8143 17.2364 28.6924 17.147 28.6924 16.9838C28.6924 16.8206 28.8143 16.7312 28.8678 16.6981C28.9342 16.657 29.0155 16.6275 29.096 16.6044C29.2609 16.5572 29.4887 16.5193 29.7603 16.4891C30.3073 16.4282 31.0747 16.3941 31.9712 16.3941C32.8678 16.3941 33.6352 16.4282 34.1822 16.4891C34.4538 16.5193 34.6816 16.5572 34.8465 16.6044C34.927 16.6275 35.0083 16.657 35.0746 16.6981C35.1281 16.7312 35.2501 16.8206 35.2501 16.9838C35.2501 17.147 35.1281 17.2364 35.0746 17.2695C35.0083 17.3106 34.927 17.3402 34.8465 17.3632C34.6816 17.4104 34.4538 17.4483 34.1822 17.4785C33.6352 17.5394 32.8678 17.5735 31.9712 17.5735Z" fill="white" stroke="white" stroke-width="5"/>
<path fill-rule="evenodd" clip-rule="evenodd" d="M24.9039 18.0026C24.9039 13.8586 21.6058 10.5298 17.5 10.5298C13.3943 10.5298 10.0962 13.8586 10.0962 18.0026C10.0962 20.8898 11.7452 23.4034 14.1347 24.6602V27.5135H20.8654V24.6602C23.2548 23.4034 24.9039 20.8898 24.9039 18.0026Z" stroke="white" stroke-width="1.2" stroke-linecap="square"/>
<path fill-rule="evenodd" clip-rule="evenodd" d="M13.4614 20.0407C13.4614 19.2934 14.0672 18.682 14.8076 18.682C15.548 18.682 16.1537 19.2934 16.1537 20.0407V21.3994H14.8076C14.0672 21.3994 13.4614 20.788 13.4614 20.0407Z" stroke="white" stroke-width="1.2" stroke-linecap="square"/>
<path d="M16.1538 21.3993V27.5134" stroke="white" stroke-width="1.2" stroke-linecap="square"/>
<path fill-rule="evenodd" clip-rule="evenodd" d="M21.5385 20.0407C21.5385 19.2934 20.9327 18.682 20.1923 18.682C19.452 18.682 18.8462 19.2934 18.8462 20.0407V21.3994H20.1923C20.9327 21.3994 21.5385 20.788 21.5385 20.0407Z" stroke="white" stroke-width="1.2" stroke-linecap="square"/>
<path d="M18.8462 21.3993V27.5134" stroke="white" stroke-width="1.2" stroke-linecap="square"/>
<path d="M16.1538 21.3993H18.8461" stroke="white" stroke-width="1.2" stroke-linecap="square"/>
<path d="M14.1348 29.5516H20.8655" stroke="white" stroke-width="1.2" stroke-linecap="square"/>
<path d="M16.1538 30.9103H18.8461" stroke="white" stroke-width="1.2" stroke-linecap="square"/>
</g>
<defs>
<clipPath id="clip0">
<rect width="35" height="31.25" fill="white"/>
</clipPath>
</defs>
</svg>
