<svg width="143" height="47" viewBox="0 0 143 47" fill="none" xmlns="http://www.w3.org/2000/svg">
<g clip-path="url(#clip0)">
<path fill-rule="evenodd" clip-rule="evenodd" d="M30.3116 10.861C30.2558 10.861 30.1453 10.861 30.0895 10.9172C30.2001 10.0211 30.3116 9.18112 30.423 8.22984H30.4797C30.4797 8.51044 30.5354 8.79012 30.5354 9.0698C30.5354 9.3504 30.4797 9.68528 30.4797 9.96496C30.4797 10.3017 30.5902 10.5252 30.3116 10.861ZM28.0878 20.3775H27.8658C28.0878 19.6498 28.1992 18.9782 28.4212 18.2514C28.6433 17.5228 28.8114 16.7389 29.0891 16.0673C29.312 15.3396 29.312 14.6119 29.7003 13.8842C29.3669 16.0673 28.9786 18.1944 28.0878 20.3775ZM34.3708 17.187C34.3708 17.5228 34.3151 17.9147 34.3151 18.1944H34.2046C34.0931 17.4114 34.0931 17.4114 34.3708 17.187ZM33.7587 20.6581C34.0931 19.762 34.1488 19.0343 34.5929 18.3066C34.6486 18.1382 34.7043 18.0269 34.7601 17.9147C34.8706 17.2983 35.1483 16.6837 35.3155 16.0673C35.4261 15.6202 35.4261 15.116 35.4261 14.668C35.4818 14.3874 35.4818 14.0525 35.4818 13.7158C35.4818 13.3239 35.5376 12.9329 35.4261 12.5962C35.4261 12.3165 35.2041 12.149 35.4818 11.7571C35.5376 11.6449 35.4818 11.5326 35.4261 11.4213C35.3155 11.253 35.3704 11.0855 35.4261 10.861C35.5376 10.6375 35.4818 10.4139 35.5933 10.1894C35.7038 9.7414 35.3704 9.46172 35.4261 9.0698C35.4261 8.67788 35.3155 8.39728 35.0926 8.1176C34.9263 7.95016 34.8706 7.78272 34.9263 7.50304C35.0926 6.99888 34.9821 6.55084 34.6486 6.38248C34.2594 6.15892 34.2046 5.82312 34.0931 5.4312C34.0374 5.26284 34.0374 5.03928 33.8693 4.98316C33.481 4.75868 33.258 4.479 33.036 4.1432C32.8697 3.86352 32.592 3.52772 32.5363 3.19192C32.4805 2.85612 32.37 2.63164 32.0904 2.52032C31.9241 2.4642 31.8127 2.40808 31.7021 2.35196C31.3129 1.96004 30.8131 1.7926 30.3116 1.68036C29.5898 1.40068 28.8671 1.23232 28.1435 0.952637C27.9772 1.00876 27.6437 1.12008 27.4217 1.23232C27.3103 1.4568 27.1997 1.62424 27.144 1.7926C27.0882 1.96004 27.0325 2.18452 27.0882 2.29676C27.1997 2.68776 27.366 3.02356 27.5323 3.41548C27.6437 3.75128 27.81 4.088 28.4212 3.97576C28.8114 3.86352 29.0891 4.088 29.2563 4.31156C29.3669 4.64736 29.4226 4.87184 29.4226 5.26284C29.4783 6.15892 29.4783 7.1102 29.5341 8.1176C29.5341 10.1333 29.312 12.149 28.9786 14.2761C28.7556 16.0112 28.1435 17.7472 27.588 19.5385C27.1997 20.7694 26.6424 22.1136 26.1426 23.4006C25.8092 24.1845 25.4757 24.8561 25.1422 25.6399C23.1404 30.342 16.7477 41.0904 19.4155 29.6704C19.6375 28.1028 20.1391 26.4799 20.6946 24.8009C21.1944 23.4568 21.7508 22.0013 22.0843 20.6581C22.1957 20.154 22.4177 19.6498 22.7512 19.0904C23.251 18.3066 23.3634 17.4114 23.6411 16.6276C23.6968 16.5154 23.7526 16.347 23.6411 16.2909C23.4191 16.1796 23.5854 15.9551 23.5854 15.6754C23.6411 15.4518 23.7526 15.0599 23.5854 14.8916C23.3634 14.6119 23.1952 14.3874 23.251 13.9964C23.251 13.38 22.7512 13.2687 22.2515 13.1564C21.8065 13.0442 21.3607 12.8206 20.8609 12.7645C20.2497 12.7084 19.749 12.4287 19.0263 12.6523C18.638 12.7645 18.1374 12.9329 17.9702 13.2126C17.5252 13.828 17.136 14.4996 16.9697 15.1712C16.692 16.5154 16.0798 17.8024 15.5244 19.0904C14.9131 20.6581 14.1338 22.1697 13.3563 23.7374C13.0785 24.3519 12.6893 24.9683 12.4107 25.6399C12.2992 25.8083 12.1887 25.9757 12.0215 26.088C11.688 26.2554 11.5217 26.536 11.2997 26.8718C8.13029 33.1977 5.85168 33.9254 7.07322 25.8644C7.12895 25.3602 7.12895 24.9683 7.12895 24.5203C7.18468 23.7926 7.18468 23.0648 7.29614 22.3932C7.51907 21.05 7.68627 19.7059 7.96401 18.4188C8.24176 16.9073 8.5195 15.3957 8.85298 13.8842C9.01926 12.8768 9.13164 11.9807 8.79725 11.1416C8.68578 10.9733 8.63005 10.7488 8.63005 10.5252C8.57432 10.0772 8.29657 9.85364 7.79682 9.90976C7.24041 9.90976 6.68492 10.0211 6.12943 10.1333C6.0737 10.2456 6.0737 10.3578 6.0737 10.4139C6.12943 11.5888 5.90742 12.8206 5.62876 14.1077C5.29437 15.6202 5.12808 17.187 4.62832 18.6985C3.62698 21.6094 2.90429 24.5203 2.07106 27.4321C1.68093 28.9988 1.12544 30.6217 0.681416 32.3016C0.236475 34.0368 -0.179229 36.5888 0.098516 38.2126C0.154248 38.5484 0.376261 38.8842 0.654007 39.0526C1.15377 39.4436 1.76682 39.5558 2.54432 39.4997C3.48993 39.4436 4.3789 39.4436 5.26878 39.3875H5.71373C7.1591 38.9404 8.49209 38.4362 9.71545 37.4288C10.0489 37.2052 10.3267 36.8685 10.7168 36.5888C15.1086 31.1029 15.0794 31.5178 15.3023 36.7241C15.4129 37.0599 15.5801 37.4518 15.8578 37.7315C16.4142 38.4592 17.3589 38.8511 18.1931 39.243C18.5823 39.4114 19.1378 39.4675 19.6375 39.4114C19.8057 39.3553 19.9719 39.3553 20.1391 39.3553C21.1944 39.4675 22.14 38.9082 22.8069 38.0121C23.9188 36.668 25.0298 35.2686 25.9754 33.9254C26.8096 32.7497 27.4775 31.5739 28.1992 30.3982C28.5327 29.7827 28.8671 29.2233 29.2563 28.6069C29.3669 28.3272 29.5341 28.0466 29.5898 27.767C29.7003 27.2637 30.0895 26.8157 30.423 26.4799C30.868 26.088 30.9794 25.8083 31.0909 25.3602C31.2014 24.9122 31.2014 24.3519 31.8684 24.017C31.9241 23.9609 32.0347 23.7926 32.0347 23.6812C32.4805 22.4494 33.0918 21.2175 33.2032 19.9856C33.2032 19.8743 33.3695 19.762 33.481 19.5946C33.5915 19.9856 33.6472 20.2662 33.7587 20.6581Z" fill="white"/>
<path fill-rule="evenodd" clip-rule="evenodd" d="M55.2126 22.4521C55.3953 22.5441 55.5781 22.5901 55.8531 22.4061C55.9444 22.3141 56.0815 22.2221 56.1729 22.2681C56.4013 22.2221 56.7667 22.0371 56.8581 21.8991C57.0408 21.6691 57.1779 21.4851 57.3158 21.3471C57.4081 21.2551 57.4081 21.1631 57.4081 21.1171C57.4538 20.9331 57.5451 20.8411 57.6365 20.7031C57.7279 20.6102 57.7735 20.4722 57.9106 20.3342C57.7279 20.0122 57.4994 19.7813 57.1779 19.6433C56.9951 19.5973 56.7667 19.5513 56.584 19.4593C56.5383 19.4133 56.4926 19.4593 56.4013 19.5053C56.3099 19.5513 56.2185 19.5513 56.2185 19.4593C56.1729 19.4133 56.0815 19.4133 55.9901 19.4593C55.8988 19.4593 55.8065 19.5513 55.7151 19.6433C55.6238 19.7813 55.5324 19.9193 55.441 20.0582C55.304 20.3342 55.0756 20.5642 55.0756 20.8411C55.0756 20.8871 54.9385 20.9791 54.9385 21.0711C54.8015 21.3011 54.7101 21.4391 54.6188 21.6691C54.5731 21.8531 54.4817 21.9911 54.4817 22.1291C54.436 22.1761 54.3903 22.2681 54.3438 22.3141C54.5274 22.3601 54.6644 22.3601 54.8472 22.3601C54.9842 22.3601 55.0756 22.3601 55.2126 22.4521Z" fill="white"/>
<mask id="mask0" mask-type="alpha" maskUnits="userSpaceOnUse" x="127" y="14" width="15" height="25">
<path fill-rule="evenodd" clip-rule="evenodd" d="M141.463 38.5987V14.0378L127.758 14.0378V38.5987H141.463Z" fill="white"/>
</mask>
<g mask="url(#mask0)">
<path fill-rule="evenodd" clip-rule="evenodd" d="M136.019 16.0504C135.981 16.3614 135.903 16.6723 135.865 16.9833C135.826 17.1783 135.788 17.3725 135.748 17.5279C135.672 17.9557 135.595 18.344 135.517 18.7331C135.286 19.4323 134.204 19.3937 134.359 18.3826C134.475 17.9557 134.552 17.5279 134.629 17.1388C134.706 16.9447 134.784 16.7892 134.86 16.6337C134.9 16.5169 134.977 16.4 135.016 16.2832C135.093 15.9336 135.247 15.584 135.401 15.273C135.479 15.078 135.595 15.0007 135.748 14.8839C135.826 14.8066 135.942 14.8452 135.981 15.0007C136.019 15.3503 136.057 15.7008 136.019 16.0504ZM134.552 21.9982C134.204 22.6983 134.05 23.0866 133.781 23.8253C133.24 25.2642 132.003 27.6746 132.853 24.4473C133.201 23.2421 133.355 22.3487 133.781 21.0653C135.054 20.2493 134.939 21.0267 134.552 21.9982ZM140.73 18.8491H138.722C138.258 18.8886 137.757 18.9273 137.293 18.9659C137.139 18.9659 137.023 18.9659 136.907 18.8886C136.945 18.7718 136.945 18.6936 136.945 18.5777C137.023 18.2658 137.1 17.9557 137.177 17.6439C137.216 17.4111 137.254 17.217 137.293 17.0219C137.332 16.8278 137.332 16.6337 137.293 16.4782C137.254 16.2832 137.216 16.0891 137.216 15.8554C137.216 15.3899 137.139 15.0007 136.945 14.6115C136.792 14.1847 136.598 13.951 136.057 14.0678C136.019 14.1065 136.019 14.1065 135.981 14.1065C135.71 14.1065 135.479 14.2233 135.247 14.1451C135.054 14.1065 134.9 14.1847 134.745 14.3006C134.668 14.3788 134.552 14.4956 134.475 14.6115C133.973 15.078 133.587 15.6226 133.201 16.2445C132.776 16.9447 132.506 17.7221 132.12 18.4608C132.043 18.8104 131.85 19.0827 131.734 19.3937C131.656 19.5878 131.503 19.666 131.348 19.7047C130.961 19.7442 130.575 19.7829 130.228 19.8601C129.687 19.977 129.186 20.0938 128.645 20.2097C128.607 20.2097 128.529 20.2493 128.452 20.2879C128.491 20.4821 128.607 20.5603 128.683 20.6375C128.915 20.793 129.147 20.9099 129.379 21.0653C129.61 21.2595 129.842 21.2208 130.112 21.2595C131.039 21.4536 130.036 22.932 129.842 23.7867C129.726 24.1759 129.61 24.6027 129.495 25.0305C129.417 25.2642 129.302 25.5365 129.263 25.8079C129.186 26.0803 129.147 26.3139 129.07 26.5863C128.143 29.7354 127.758 30.2019 127.758 33.4669C127.796 34.0502 127.912 34.8672 128.066 35.3723C128.182 35.7605 128.413 36.0724 128.607 36.422C128.993 37.1994 130.19 38.4046 131 38.5214C131.464 38.6373 132.003 38.5987 132.506 38.5601C132.776 38.5214 133.935 38.0936 134.244 37.8995C134.706 37.5876 135.556 36.5775 136.057 36.2269C136.251 36.0724 138.065 33.7393 138.22 33.4669C138.567 32.8064 138.915 32.1845 139.262 31.4843C139.493 30.8624 139.764 30.2405 139.996 29.6186C140.074 29.4631 140.498 28.3352 140.459 28.1797C140.421 27.9856 140.536 27.9856 140.536 27.7528C140.575 27.6351 140.305 27.7915 140.112 27.7528C139.919 28.1797 139.533 29.0353 139.378 29.4235C139.031 30.0455 138.838 30.9011 138.489 31.5625C138.104 32.3399 136.792 33.7779 136.213 34.3612C135.981 34.5553 134.822 35.4891 134.591 35.6446C134.244 35.8773 133.548 35.8387 133.201 35.8387C133.124 35.8387 133.085 35.7991 133.047 35.7991C132.931 35.6446 132.776 35.5277 132.7 35.3336C132.506 34.7503 132.352 34.1671 132.312 33.5451C132.236 32.0676 132.738 29.1135 133.162 28.1411C133.355 27.8687 133.316 27.5191 133.471 27.2468C133.664 26.9359 133.857 26.5863 133.973 26.2357C134.089 25.8079 134.244 25.4583 134.436 25.0701C134.475 24.9533 134.552 24.7978 134.629 24.6423C135.132 23.3589 135.748 22.1151 136.213 20.793C136.251 20.7544 136.251 20.7157 136.29 20.6762C136.367 20.5216 136.445 20.4048 136.598 20.3661C136.907 20.3266 137.177 20.2879 137.487 20.2493C137.642 20.2097 137.834 20.2097 137.989 20.1325C138.258 20.0543 138.529 20.0156 138.799 20.0156C139.262 20.0543 139.726 19.8601 140.15 19.8215C140.15 19.8215 140.189 19.8215 140.189 19.7829C140.459 19.666 140.768 19.5105 141.038 19.3937C141.116 19.3551 141.232 19.2769 141.309 19.1996C141.347 19.1609 141.386 19.0827 141.463 18.9659C141.193 18.9273 140.961 18.8491 140.73 18.8491Z" fill="white"/>
</g>
<path fill-rule="evenodd" clip-rule="evenodd" d="M111.896 29.175C111.899 29.2063 111.901 29.2275 111.906 29.2726C111.911 29.2155 111.907 29.1953 111.896 29.175Z" fill="white"/>
<path fill-rule="evenodd" clip-rule="evenodd" d="M111.88 29.1524C111.888 29.1607 111.891 29.1681 111.895 29.1754C111.874 28.9841 111.875 29.0227 111.88 29.1524Z" fill="white"/>
<path fill-rule="evenodd" clip-rule="evenodd" d="M108.097 29.989C107.093 28.8979 106.05 26.7957 107.133 25.2593C107.415 24.9769 108.298 24.1277 108.779 24.5316C109.061 24.6935 109.261 24.8554 109.502 25.0578C109.742 25.1783 109.864 25.3807 110.024 25.5427C110.305 25.7846 110.465 26.1085 110.586 26.5123C110.706 26.9576 110.787 27.321 110.866 27.8059C110.987 28.0892 110.987 28.4526 110.906 28.7765C111.185 30.3395 109.038 31.8511 108.097 29.989ZM108.629 34.2735C108.227 35.2036 107.746 36.1328 107.063 36.8605C107.022 36.901 106.943 36.9415 106.903 36.9819C106.863 37.0224 106.863 37.0224 106.822 37.0224C106.621 36.9415 106.461 36.7391 106.381 36.5376C106.34 36.4566 106.26 36.4161 106.34 36.3352C106.34 36.1328 106.34 35.8908 106.381 35.6884C106.621 34.9607 106.702 34.5973 107.143 33.9505C107.666 33.2633 108.107 32.899 109.031 33.3038C108.909 33.5862 108.829 33.9505 108.629 34.2735ZM95.2977 34.4418C95.1826 34.635 94.9907 34.7896 94.7989 34.9055C94.7212 34.9828 94.6061 34.9828 94.5293 35.0601C94.4142 35.0601 94.2991 34.9055 94.2607 34.7123C94.2607 34.2477 94.4142 33.9772 94.6444 33.8613C94.9907 33.5908 95.3361 33.6681 95.7582 33.4749C95.8733 33.2431 95.7198 33.8613 95.2977 34.4418ZM73.8464 35.8246C73.7085 35.7795 73.6171 35.7335 73.5267 35.6415C73.3896 35.4575 73.2526 35.3204 73.1621 35.1364C72.6688 34.187 72.6194 33.1041 72.7912 31.9321C72.8688 31.783 72.9456 31.6404 73.0232 31.4849C73.0744 31.3469 73.1311 31.2099 73.185 31.0728C73.1676 31.1565 73.1438 31.2402 73.1164 31.3249C72.9337 32.013 72.9337 32.6561 72.9337 33.3452C72.9337 33.3912 72.888 33.4372 72.9337 33.4832C73.0251 34.0803 73.1164 34.6773 73.3439 35.1364C73.3439 35.1815 73.3896 35.1815 73.4353 35.2275C73.5267 35.0444 73.3896 34.9524 73.3896 34.8144C73.3439 34.6773 73.2982 34.5853 73.2526 34.4473C73.2526 34.4473 73.2982 34.4013 73.3439 34.4013C73.481 34.6313 73.481 34.9064 73.6171 35.1815C73.7085 35.4115 73.8464 35.5955 73.9835 35.8246C73.8921 35.8246 73.8464 35.8706 73.8464 35.8246ZM73.3896 32.289C73.3439 32.7481 73.2982 33.2072 73.2526 33.7123C73.2069 33.6663 73.1621 33.6663 73.1621 33.6203C73.0708 32.9321 73.0251 32.243 73.2526 31.5079C73.2526 31.4619 73.2982 31.4159 73.3439 31.3699C73.481 31.6459 73.4353 31.9679 73.3896 32.289ZM66.6141 24.4479C66.9622 23.2427 67.1157 22.3484 67.5414 21.065C68.815 20.249 68.6999 21.0264 68.3125 21.9979C67.9654 22.698 67.8109 23.0872 67.5414 23.8259C67.0006 25.2639 65.7653 27.6743 66.6141 24.4479ZM68.1198 18.3823C68.2358 17.9554 68.3125 17.5276 68.3902 17.1385C68.4669 16.9443 68.5446 16.7889 68.6213 16.6334C68.6606 16.5175 68.7383 16.3997 68.7767 16.2838C68.8543 15.9342 69.0078 15.5837 69.1622 15.2727C69.2399 15.0786 69.3559 15.0004 69.5094 14.8835C69.5871 14.8063 69.7031 14.8449 69.7415 15.0004C69.7798 15.3509 69.8182 15.7005 69.7798 16.0501C69.7415 16.3611 69.6638 16.672 69.6254 16.983C69.5871 17.178 69.5487 17.3721 69.5094 17.5276C69.4327 17.9554 69.3559 18.3437 69.2782 18.7328C69.0471 19.432 67.9654 19.3934 68.1198 18.3823ZM78.6805 28.3395C78.7718 28.1555 78.908 27.9724 78.9993 27.8344C79.4096 27.3293 79.775 26.7322 80.2766 26.3642C80.96 25.8141 82.4191 25.4001 81.69 27.1453C81.4168 27.9264 81.2341 28.0644 80.9143 28.8445C80.7325 29.1656 80.5041 29.4876 80.1852 29.5796C79.8207 29.6256 79.4552 29.6716 79.1821 29.3496C79.0907 29.2116 78.908 29.1205 78.7718 29.0285C78.5434 28.8905 78.4978 28.6615 78.6805 28.3395ZM126.745 30.5061C126.588 30.7048 126.43 30.8235 126.273 30.9421C126.233 31.0213 126.155 31.0608 126.116 31.1399C126.037 31.2191 125.761 31.1004 125.683 31.1795C125.643 31.2191 125.682 31.0608 125.485 30.9421C125.524 30.5852 125.485 30.2291 125.485 29.8722C125.485 29.357 125.524 28.8022 125.446 28.287C125.367 27.7323 125.249 27.1775 125.171 26.6623V26.5041C124.935 25.9879 124.659 25.6319 124.187 25.6319C123.951 25.6319 123.715 25.6715 123.44 25.6715C123.203 25.711 122.967 25.8693 122.81 26.1471C122.652 26.4636 122.416 26.8205 122.181 27.1379C121.983 27.5335 121.747 27.8905 121.511 28.2475C121.236 28.7222 119.858 31.5365 119.701 32.1308C119.543 32.8042 117.733 34.6672 118.323 32.7647C118.756 31.2586 119.701 29.9513 120.213 28.287C120.409 27.4544 120.488 28.0487 120.684 27.2566C120.921 26.5041 120.841 26.0284 120.488 25.3936C120.095 24.918 119.701 24.5619 119.425 24.0467C119.11 23.7698 118.874 23.6898 118.638 23.6502C118.284 23.5711 117.929 23.492 117.654 23.492C117.261 23.4129 117.103 23.492 116.945 24.0072C116.631 24.6411 116.394 25.2749 116.119 25.9879C116.041 26.2658 115.884 26.4636 115.844 26.7414C115.293 28.287 115.45 28.0487 115.175 29.5943C114.86 30.6643 115.018 30.5852 114.821 31.7343C114.817 31.7968 114.814 31.8594 114.809 31.921C114.026 31.8493 113.278 31.7333 112.139 31.714C111.803 31.6873 111.574 31.3718 111.719 31.128C111.881 30.6735 111.792 30.1988 111.873 29.6955C111.9 29.6293 111.888 29.3248 111.88 29.1527C111.877 29.1491 111.877 29.1472 111.874 29.1426C111.816 28.7976 111.839 28.5023 111.827 28.1187C111.776 27.6899 111.767 27.264 111.671 26.8739C111.526 26.5648 111.465 26.263 111.366 25.9143C111.199 25.3485 110.976 24.9493 110.625 24.5813C110.345 24.389 110.113 24.1157 109.878 23.8848C109.68 23.699 108.824 22.7817 108.488 22.7551C108.033 22.6336 107.527 22.6364 107.129 22.8599C106.603 23.1166 106.164 23.3365 105.805 23.6051C105.634 23.6346 105.543 23.7128 105.495 23.7937C105.064 24.4396 104.802 25.0992 104.873 25.8269C104.923 26.8086 105.06 27.7543 105.463 28.552C105.501 28.5971 105.498 28.6394 105.495 28.6817C105.443 28.805 105.436 28.8896 105.307 28.9218C104.708 29.5401 104.177 30.2015 103.751 30.9532C102.766 31.3598 101.498 31.6791 101.17 31.7039C99.7343 31.8079 99.3981 32.1271 99.4447 31.1611L100.368 27.7102L100.314 26.5804C100.338 26.3099 100.293 25.9567 100.282 25.6457C100.271 25.3338 100.145 25.0118 99.9627 24.8793C99.6813 24.5822 99.4027 24.2464 99.0518 24.2933L98.4013 24.2344C98.1336 24.2105 97.7727 24.3715 97.5224 24.5822C97.1898 24.8628 96.8874 25.2243 96.5932 25.5077C96.2534 25.8656 96.0304 26.1949 95.7947 26.6779L93.4659 31.2062C93.3169 31.5806 92.6756 32.2991 92.5339 32.5972C92.2078 33.2283 90.9598 33.3875 91.7628 31.2862C92.0543 30.6137 92.3512 29.8639 92.6354 29.2687C93.0657 28.3367 93.422 27.3597 93.7326 26.4562C93.9437 25.815 94.0396 25.1636 94.015 24.5794C94.0022 23.4138 93.7336 22.5361 93.221 21.7918L93.1863 21.7495L92.3202 21.0889C92.142 20.9178 91.9501 20.9003 91.7455 21.0374C91.4275 21.5913 91.0639 22.2178 90.82 22.779C90.2563 23.9308 89.7647 25.1287 89.2028 26.2428C89.0475 26.6954 88.8639 27.0285 88.7149 27.4029C88.0754 28.9752 87.4688 30.5898 86.8986 32.2467C86.7625 32.6129 86.6383 32.9993 86.5122 33.3811C85.9083 33.9027 85.3162 34.4326 84.7004 34.9064C83.6963 35.6875 82.6484 36.2846 81.5539 36.6057C81.3255 36.6517 80.0025 36.8817 79.775 36.8357C79.045 36.7897 78.2703 35.9626 77.6307 35.3204C77.4946 35.1364 77.13 34.1263 76.993 33.9423C76.9016 33.7123 76.8112 33.4372 76.8112 33.1161C76.8112 32.7941 76.8112 32.519 76.7655 32.197C76.7198 32.197 76.6741 32.151 76.5819 32.105C76.6275 31.7839 76.6741 31.4619 76.7198 31.1409H76.8112C76.8112 31.2329 76.8112 31.3699 76.7655 31.5079H77.0844V31.4619C77.0387 31.4159 76.993 31.4159 76.9016 31.4159C76.9473 31.1409 76.9473 31.0949 77.0387 31.0489C77.1757 31.0029 77.2205 30.9578 77.2662 30.7729C77.2662 30.6358 77.3575 30.5898 77.4032 30.5438C77.4946 30.4978 77.585 30.4058 77.585 30.3147C77.585 30.0387 77.7678 29.8547 77.8134 29.6256C77.9505 29.4876 78.0866 29.5336 78.1332 29.6716C78.3616 30.0387 78.5434 30.4518 78.7262 30.8189C78.7718 30.9578 78.8623 31.0489 78.7718 31.2329C78.7718 31.2789 78.8166 31.4159 78.8623 31.4619C79.1364 31.5999 79.3639 32.013 79.7293 31.9679C79.7293 31.9679 79.775 31.9679 79.775 32.013C79.8664 32.197 80.0025 32.151 80.1396 32.197C80.4127 32.243 80.7325 32.197 81.0057 32.059C81.3255 31.9679 81.6443 31.7379 81.827 31.3699C82.0089 31.0489 82.1916 30.7729 82.2829 30.4518C82.4191 30.0847 82.6027 29.8087 82.7854 29.4876C83.1043 28.9365 83.3775 28.3395 83.4688 27.6964C83.605 27.0993 83.5602 26.5942 83.4688 26.0431C83.4232 25.9061 83.3775 25.7221 83.2861 25.6301C82.9673 25.3541 82.7854 24.895 82.557 24.4819C82.4648 24.2988 82.3743 24.1139 82.2373 24.0228C81.827 23.7468 80.0939 23.2877 79.638 23.0587C79.5466 22.9667 79.5009 22.7827 79.3639 22.6907C79.2725 22.5987 79.0907 22.6447 78.9537 22.5067C78.8166 22.2776 78.5891 22.3236 78.3616 22.4156C78.2246 22.5067 78.0866 22.5527 77.9048 22.6447C77.1757 23.1037 76.4905 23.7017 75.8528 24.3899C75.2151 25.033 74.6669 25.7221 74.1653 26.5031C73.6628 27.2373 73.2526 28.0184 72.888 28.8445C72.7519 29.1656 72.5692 29.4416 72.5692 29.8547C72.7967 29.4416 72.9794 29.0745 73.1164 28.6615C73.2069 28.3855 73.3439 28.2935 73.5714 28.1555C73.5824 28.2484 73.5888 28.3155 73.5934 28.3744C73.4198 28.7627 73.2352 29.1813 73.1393 29.4241C72.7921 30.0461 72.5993 30.9017 72.2512 31.5622C71.8648 32.3396 70.5528 33.7776 69.9735 34.3609C69.7415 34.555 68.583 35.4888 68.3518 35.6443C68.0046 35.8779 67.3094 35.8384 66.9622 35.8384C66.8845 35.8384 66.8461 35.7997 66.8078 35.7997C66.6917 35.6443 66.5373 35.5274 66.4606 35.3333C66.2669 34.75 66.1125 34.1667 66.0732 33.5448C65.9965 32.0673 66.499 29.1132 66.9229 28.1407C67.1157 27.8693 67.0773 27.5188 67.2317 27.2465C67.4254 26.9355 67.6182 26.5859 67.7342 26.2363C67.8502 25.8085 68.0046 25.4589 68.1974 25.0698C68.2358 24.9529 68.3125 24.7975 68.3902 24.642C68.8927 23.3586 69.5094 22.1147 69.9735 20.7927C70.0119 20.7541 70.0119 20.7154 70.0512 20.6768C70.1279 20.5213 70.2056 20.4045 70.3591 20.3658C70.6679 20.3272 70.9383 20.2876 71.248 20.249C71.4025 20.2094 71.5952 20.2094 71.7496 20.1321C72.0192 20.0549 72.2896 20.0153 72.56 20.0153C73.0232 20.0549 73.4865 19.8598 73.9113 19.8212C73.9113 19.8212 73.9497 19.8212 73.9497 19.7825C74.2201 19.6657 74.5289 19.5102 74.7984 19.3934C74.877 19.3547 74.993 19.2775 75.0698 19.1993C75.1082 19.1606 75.1465 19.0824 75.2242 18.9656C74.9538 18.9269 74.7217 18.8497 74.4905 18.8497H72.4833C72.0192 18.8883 71.5176 18.9269 71.0544 18.9656C70.9 18.9656 70.7839 18.9656 70.6679 18.8883C70.7072 18.7715 70.7072 18.6942 70.7072 18.5773C70.7839 18.2664 70.8607 17.9554 70.9383 17.6445C70.9767 17.4108 71.0151 17.2167 71.0544 17.0216C71.0927 16.8275 71.0927 16.6334 71.0544 16.4779C71.0151 16.2838 70.9767 16.0887 70.9767 15.856C70.9767 15.3895 70.9 15.0004 70.7072 14.6112C70.5528 14.1843 70.3591 13.9507 69.8182 14.0675C69.7798 14.1061 69.7798 14.1061 69.7415 14.1061C69.471 14.1061 69.2399 14.223 69.0078 14.1457C68.815 14.1061 68.6606 14.1843 68.5062 14.3012C68.4286 14.3785 68.3125 14.4953 68.2358 14.6112C67.7342 15.0786 67.3477 15.6223 66.9622 16.2442C66.5373 16.9443 66.2669 17.7217 65.8804 18.4605C65.8037 18.8101 65.6109 19.0824 65.4949 19.3934C65.4172 19.5875 65.2637 19.6657 65.1093 19.7053C64.7219 19.7439 64.3364 19.7825 63.9892 19.8598C63.4483 19.9767 62.9467 20.0935 62.4059 20.2094C62.3675 20.2094 62.2898 20.249 62.2131 20.2876C62.2515 20.4827 62.3675 20.5599 62.4442 20.6372C62.6763 20.7927 62.9084 20.9105 63.1395 21.065C63.3716 21.2601 63.6027 21.2205 63.8732 21.2601C64.7996 21.4542 63.7964 22.9317 63.6027 23.7864C63.4867 24.1755 63.3716 24.6033 63.2556 25.0311C63.1779 25.2639 63.0628 25.5362 63.0235 25.8085C62.9467 26.0809 62.9084 26.3136 62.8307 26.5859C62.1884 28.77 61.8065 29.6652 61.632 31.0967C61.5169 31.2531 61.4018 31.4086 61.2931 31.5668C59.0985 33.9147 60.4708 34.4216 56.6755 35.8025C56.4015 35.8485 56.173 35.9405 55.9446 35.7565C55.6696 35.6645 55.4412 35.4805 55.2585 35.3885C55.1205 35.2045 54.9378 35.0205 54.8921 34.6976C54.8464 34.2836 55.0292 31.9357 55.0292 31.4748C55.0749 30.6468 55.0749 30.8308 55.4412 29.9099C55.4869 29.8179 55.5774 29.6799 55.5774 29.5419C55.6696 29.081 54.8464 30.8308 55.0292 30.2779C55.2585 29.8639 55.4412 29.311 55.624 28.897C55.6696 28.713 55.7601 28.483 55.8533 28.207C56.2187 27.4701 56.5385 26.9171 56.8126 26.3191C56.9496 25.8582 56.904 25.5362 56.7212 25.3062C56.5385 25.1222 56.0817 24.8922 55.9446 24.7082C55.4869 24.4322 54.343 25.2602 53.8405 25.3522C53.7035 25.4442 53.6121 25.4902 53.4751 25.6742L53.4294 25.7202C53.2924 25.7662 53.2467 25.7202 53.1553 25.6742C53.0183 25.9511 52.9726 26.1351 53.0183 26.3191C53.1096 26.6411 52.9726 26.8251 52.8346 27.1021C52.8346 27.1021 52.7433 27.2391 52.7433 27.3321C52.4692 27.9761 51.6469 28.989 51.2805 29.9099C51.1992 30.0451 51.159 30.1307 51.1362 30.1933C50.8721 30.5254 50.6857 30.7499 50.3578 31.1399C50.3194 31.2172 48.9498 32.2899 48.9115 32.3286C48.335 32.8309 43.542 37.8486 43.8106 35.4511C44.0792 34.601 46.5287 29.4674 46.7589 28.5777C46.9901 27.5731 47.5273 25.2529 46.9508 24.2869C45.6068 23.4359 44.1871 23.7459 42.9198 24.9051C42.3826 25.447 40.9619 26.7221 40.4238 27.3017C40.1935 27.7663 38.0821 30.6661 38.0821 29.6606C38.274 28.5777 38.3507 28.5391 38.7738 27.4958C39.004 26.838 39.3493 26.2198 39.6189 25.5629C39.9642 24.8665 40.347 24.17 40.7308 23.4745C40.9619 23.0108 41.1922 22.5858 41.4608 22.1212C41.7677 21.6189 42.114 21.1165 42.421 20.5369C42.5361 20.4201 42.5745 20.2269 42.6896 20.111C42.9966 19.8791 43.2268 19.5314 43.458 19.145C43.8417 18.4485 44.6475 17.4439 45.2231 16.9029C45.415 16.7088 45.5685 16.5156 45.7612 16.3224C45.9531 16.0906 46.145 16.0133 46.3368 16.0519C46.4903 16.0906 46.6438 16.1679 46.7973 16.2065C46.8741 16.2451 46.9508 16.2838 47.1052 16.3224C47.3354 16.4383 47.4122 16.8643 47.5657 16.5156C47.7959 15.936 47.6424 15.2396 47.4122 14.8918C47.0668 13.3453 44.3405 9.71129 42.6512 11.026C41.9596 11.5669 41.3456 12.2634 40.7691 13.0748C39.8491 14.2736 39.0424 15.7042 38.274 17.1734C37.6217 18.3326 37.0835 19.4927 36.5079 20.6915C35.28 24.5573 32.2467 32.0572 33.514 36.6581C33.5523 37.2386 33.7442 37.7014 34.0512 37.9728C34.2047 38.166 34.3965 38.3205 34.5116 38.5137C34.6268 38.5524 34.6651 38.6683 34.7428 38.6683C35.0114 38.6683 34.6268 38.6297 34.9347 38.591C35.1265 38.5524 35.3184 38.4751 35.4335 38.591H35.6628C35.7779 38.4365 35.8163 38.3205 35.8931 38.2433C36.1626 38.0887 36.3161 37.6627 36.3544 37.3159C36.3928 37.0445 36.5079 36.774 36.5463 36.5422C36.6231 36.3103 36.6998 36.1171 36.7382 35.8844C36.7765 35.6139 36.8533 35.4207 36.9684 35.1889C37.2379 34.6865 39.004 31.1298 39.3493 30.6275C39.5796 30.2788 39.8875 29.9697 40.1552 29.6606C40.6156 29.0801 41.6526 27.8049 42.114 27.2244C42.3059 27.0312 42.4594 26.838 42.5745 26.6062C42.6896 26.3743 42.8815 26.1811 42.9966 26.1039C43.5731 25.1369 45.2999 23.9391 46.145 25.3688C46.145 25.6015 46.145 25.8334 46.0682 26.0266C45.9915 26.2971 45.9147 26.5289 45.7996 26.7994C45.3382 27.9595 41.892 34.2919 41.6608 35.6056C41.2004 39.2792 44.6941 39.0087 45.9613 37.8099C46.0765 37.7327 47.3437 36.7271 47.4972 36.5339C47.689 36.1861 49.7666 33.3084 49.9969 32.9993C50.1257 32.8419 50.3687 32.5052 50.5505 32.2053C50.4299 32.6497 50.4902 33.5549 50.3669 34.0536C50.3669 34.2836 50.3669 34.6056 50.4583 34.8825C50.4583 35.4805 50.6867 36.1245 50.9151 36.7234C51.3262 37.1834 51.7839 37.5514 52.2408 37.7363C52.9269 38.0123 53.5208 38.6573 54.1603 38.4273C56.173 39.2093 59.2812 36.4474 59.7381 35.8485C60.5 35.3977 61.0528 34.5568 61.5315 33.6129C61.5781 34.1815 61.685 34.9055 61.8266 35.3719C61.9427 35.7602 62.1747 36.0721 62.3675 36.4217C62.754 37.1991 63.9508 38.4043 64.7612 38.5211C65.2244 38.6379 65.7653 38.5984 66.2669 38.5597C66.5373 38.5211 67.6958 38.0933 68.0046 37.8992C68.4669 37.5882 69.3166 36.5771 69.8182 36.2275C70.0119 36.0721 71.8264 33.7389 71.9808 33.4675C72.1726 33.1014 72.3654 32.7444 72.5582 32.3819C72.5463 32.565 72.5235 32.7472 72.5235 32.9321C72.5692 33.6203 72.6148 34.2633 72.8423 34.8604C72.9794 35.2275 73.2069 35.5955 73.481 35.8246C74.211 36.4677 74.5298 37.2487 76.126 37.8918C76.7198 38.1209 79.4096 38.626 80.0482 38.5349C80.5955 38.4889 81.1436 38.3969 81.69 38.2129C81.827 38.1669 81.9641 38.1209 82.1002 38.0749C82.6027 37.9838 83.1043 37.7538 83.5602 37.4787C83.8334 37.2947 84.1075 37.1567 84.3816 37.0187C84.5634 36.8817 84.7461 36.7897 84.9279 36.6517C85.1563 36.5137 85.3381 36.3306 85.5675 36.1466C85.6415 36.0868 85.7137 36.0242 85.7877 35.9644C85.6259 36.5725 85.445 37.2193 85.3226 37.8495C84.9298 39.6775 84.6584 41.4384 84.5707 43.2931C84.5405 44.0678 84.5451 44.8829 84.7096 45.6345C84.874 46.3871 85.2166 46.8839 85.8379 46.8232L85.8763 46.8269C85.9631 46.7183 86.0252 46.4515 86.1394 46.4616C86.1778 46.4653 86.3066 46.3218 86.3486 46.2868C86.4912 45.9887 86.6574 45.8489 86.8584 45.7505C87.1362 45.6594 87.3125 45.4027 87.382 45.0595C87.5373 44.6078 87.5784 44.146 87.6579 43.6878C87.826 42.6547 88.2179 41.719 88.6857 40.7907C88.8173 40.6086 88.9105 40.4227 89.1635 40.1743C89.2467 40.1044 89.3371 39.9563 89.4276 39.81C89.5244 39.5855 89.5902 39.281 89.614 39.0115C89.635 38.7805 89.7382 38.4788 89.9365 38.419C90.1795 38.2856 90.28 38.0234 90.418 37.7639C91.0493 36.3067 92.4718 35.0371 93.168 33.7021C93.5865 32.8861 94.0351 32.1887 94.5266 31.4178C95.1963 30.3911 96.6718 27.2226 97.3442 26.1581C97.5772 25.7129 97.8824 25.3136 98.1875 24.9134C98.236 24.8021 98.2771 24.7671 98.3575 24.7349C98.4854 24.5914 98.6699 24.6852 98.6909 24.8812C98.722 24.9621 98.7156 25.0385 98.7083 25.1158L98.5923 26.4259C98.3858 27.4544 97.1149 30.9136 96.7595 31.8897C96.5686 32.3001 96.3539 32.5521 96.0715 32.6828C95.5544 32.8686 95.1342 32.8309 94.6472 33.0977C94.3694 33.1897 94.089 33.3194 93.8423 33.4915C93.5983 33.6249 93.39 33.8006 93.2064 34.1327C92.8565 34.6056 92.5778 36.0141 92.9012 36.2763C93.0821 36.4088 93.1909 36.4962 93.3233 36.7409C93.4284 36.866 93.5289 37.0307 93.6751 37.1218C94.0159 37.1908 94.1027 37.5091 94.1483 37.8624C94.1383 37.9783 94.1282 38.0933 94.1557 38.2129C94.268 38.2617 94.4106 38.3914 94.5184 38.4779C94.6298 38.5266 94.744 38.5377 94.8628 38.5091L95.2758 38.1963L95.5709 37.913C95.8559 37.7446 96.1127 37.4567 96.289 37.2009L96.712 36.7731C96.7915 36.7418 97.1798 35.8485 97.2629 35.7777C97.4849 35.4492 97.7828 35.1263 97.9381 34.6746L98.119 34.3802C98.5311 33.6405 98.6526 33.1474 99.6283 33.002C100.399 32.9717 101.705 32.7858 102.991 32.4427C102.848 32.8051 102.737 33.175 102.667 33.5586C102.521 34.3544 102.504 35.118 102.528 35.8853C102.624 36.2754 102.717 36.7078 102.816 37.0555C103.18 37.8072 103.641 38.396 104.389 38.5404C104.928 38.6674 105.512 38.7557 106.112 38.6333C106.245 38.5588 106.461 38.4907 106.545 38.4972C107.016 38.407 107.417 38.1411 107.783 37.7879C107.835 37.6646 107.966 37.5901 108.054 37.5542C108.186 37.4797 108.277 37.4015 108.364 37.3656C108.629 37.2165 108.82 36.935 109.008 36.694C109.33 36.337 109.654 35.9801 109.902 35.4897C110.252 34.7951 110.682 34.1483 110.864 33.4409C110.913 33.359 110.958 33.3203 110.965 33.2357C110.971 33.152 111.1 33.1189 111.226 33.129C111.268 33.1327 111.31 33.1354 111.352 33.1391C112.099 33.198 113.42 33.3121 114.729 33.2615C114.703 33.7831 114.683 34.3038 114.664 34.8255C114.664 35.4989 114.664 36.2128 114.782 36.8863C114.939 37.6784 115.253 38.2727 115.884 38.4319C115.962 38.511 116.041 38.5901 116.119 38.511C116.749 38.6692 117.3 38.7088 117.772 38.0353C117.851 37.9562 117.969 37.9167 117.969 37.8375C118.204 37.6388 119.189 35.7372 119.268 35.4989C119.386 35.1824 119.543 34.865 119.621 34.5881C119.897 33.7159 120.33 32.9634 120.684 32.1308C120.921 31.576 121.197 31.1004 121.393 30.5456C121.629 29.7931 121.944 29.1583 122.298 28.4848C122.338 28.3661 122.456 28.2475 122.416 28.0883C122.456 27.8114 122.534 27.574 122.652 27.3753C122.849 27.0193 123.046 26.7019 123.203 26.3845C123.242 26.3053 123.321 26.2262 123.36 26.1867C123.36 26.1075 123.44 26.1471 123.479 26.1471C123.518 26.3053 123.518 26.424 123.44 26.5832C123.399 26.8205 123.36 27.0588 123.321 27.2962C123.281 27.6136 123.281 27.9301 123.203 28.287C123.085 29.0396 123.085 29.8326 123.321 30.5456C123.518 31.1004 123.873 31.5365 124.344 31.6551C124.619 31.7738 124.896 31.8134 125.171 31.9725C125.249 32.0517 125.367 32.0517 125.485 31.9725C125.643 31.8529 125.8 31.8134 125.84 31.8134C125.998 31.8134 126.116 31.7738 126.273 31.6156C126.312 31.576 126.351 31.576 126.391 31.5365C126.391 31.4969 126.469 31.4573 126.509 31.4178C126.549 31.3782 126.588 31.3377 126.627 31.2982C126.745 31.2586 126.824 31.1399 126.863 31.0213C126.902 30.9421 126.941 30.863 126.981 30.8235C127.099 30.7443 127.138 30.6247 127.138 30.5061C126.981 30.3083 126.863 30.3083 126.745 30.5061Z" fill="white"/>
</g>
<defs>
<clipPath id="clip0">
<rect y="0.952393" width="143" height="46" fill="white"/>
</clipPath>
</defs>
</svg>
