<svg width="16" height="14" viewBox="0 0 16 14" fill="none" xmlns="http://www.w3.org/2000/svg">
<path d="M13.7633 4.21645C13.7633 4.07517 13.7607 3.93517 13.7544 3.79645C14.359 3.34589 14.8833 2.78209 15.2982 2.13681C14.7433 2.38629 14.1477 2.55301 13.5215 2.62297C14.1604 2.22968 14.6504 1.60096 14.882 0.846243C14.2838 1.20896 13.622 1.4686 12.9182 1.60353C12.3544 0.962041 11.55 0.553523 10.6603 0.538242C8.95234 0.510242 7.56762 1.95353 7.56762 3.76205C7.56762 4.01913 7.59434 4.26861 7.64778 4.50913C5.07562 4.34369 2.79619 3.00476 1.27142 0.986244C1.00542 1.46989 0.852702 2.03496 0.852702 2.64081C0.852702 3.7863 1.3987 4.80445 2.2285 5.40517C1.7207 5.3823 1.2447 5.2283 0.827264 4.97625C0.827264 4.99025 0.827264 5.00425 0.827264 5.01825C0.827264 6.61938 1.89383 7.96082 3.30906 8.2739C3.04942 8.3477 2.77578 8.3859 2.4945 8.38466C2.2947 8.38338 2.10122 8.36174 1.91286 8.32098C2.30614 9.63318 3.44906 10.5915 4.80194 10.6233C3.74302 11.5015 2.40922 12.0259 0.960859 12.0221C0.711375 12.0221 0.464499 12.0055 0.222656 11.975C1.59214 12.9143 3.21738 13.4615 4.96481 13.4615C10.6527 13.4628 13.7633 8.5119 13.7633 4.21645Z" fill="white"/>
</svg>
