<svg width="578" height="493" viewBox="0 0 578 493" fill="none" xmlns="http://www.w3.org/2000/svg">
<path opacity="0.81" d="M59.8492 473.65C57.1009 452.971 63.5467 433.767 62.6967 413.676C61.0675 375.036 24.2486 348.361 11.4279 313.627C-4.82111 269.647 -4.04194 220.354 15.692 177.507C25.1978 156.855 39.0952 137.652 58.0642 124.376C87.3039 103.915 125.61 99.4216 161.65 102.017C215.27 105.882 271.866 127.38 325.769 121.521C355.519 118.284 364.6 88.4538 379.97 68.7856C397.353 46.536 421.011 29.0531 447.176 17.4161C495.371 -4.01403 553.213 -6.03549 602.47 13.4005C655.056 34.1477 700.899 84.807 697.881 142.104C696.493 168.615 685.032 194.935 690.331 220.982C696.989 253.667 723.58 283.456 742.846 310.076C764.124 339.483 777.002 374.558 779.537 410.343C782.399 450.909 771.916 492.253 750.014 527H78.3365C68.5899 510.637 62.3425 492.362 59.8492 473.65Z" fill="url(#paint0_linear)"/>
<defs>
<linearGradient id="paint0_linear" x1="730.532" y1="328.678" x2="108.03" y2="129.293" gradientUnits="userSpaceOnUse">
<stop offset="0.0964563" stop-color="#E2E2E2" stop-opacity="0.8"/>
<stop offset="0.872811" stop-color="white" stop-opacity="0.51"/>
</linearGradient>
</defs>
</svg>
