<svg width="552" height="258" viewBox="0 0 552 258" fill="none" xmlns="http://www.w3.org/2000/svg">
<path opacity="0.81" d="M503.967 -102.405C506.173 -86.6706 501 -72.0582 501.682 -56.7703C502.989 -27.3688 532.539 -7.07152 542.828 19.3576C555.869 52.8227 555.244 90.3306 539.406 122.933C531.777 138.647 520.624 153.259 505.4 163.361C481.933 178.93 451.19 182.349 422.266 180.374C379.232 177.433 333.81 161.075 290.549 165.533C266.673 167.997 259.385 190.695 247.049 205.66C233.099 222.59 214.112 235.893 193.112 244.748C154.433 261.054 108.011 262.593 68.4793 247.803C26.2755 232.017 -10.5163 193.469 -8.09461 149.871C-6.98039 129.699 2.21758 109.672 -2.03463 89.8524C-7.37831 64.9822 -28.719 42.3153 -44.1815 22.0596C-61.2586 -0.316272 -71.5935 -27.0051 -73.6287 -54.2345C-75.9253 -85.1014 -67.5118 -116.561 -49.9345 -143L489.13 -143C496.952 -130.549 501.966 -116.644 503.967 -102.405Z" fill="url(#paint0_linear)"/>
<defs>
<linearGradient id="paint0_linear" x1="340.5" y1="306" x2="268.335" y2="-37.44" gradientUnits="userSpaceOnUse">
<stop offset="0.0728352" stop-color="#E9ECEE" stop-opacity="0"/>
<stop offset="0.917746" stop-color="#DADADA"/>
</linearGradient>
</defs>
</svg>
