<svg width="355" height="316" viewBox="0 0 355 316" fill="none" xmlns="http://www.w3.org/2000/svg">
<path opacity="0.81" d="M38.6718 306.479C36.896 293.099 41.0609 280.673 40.5117 267.672C39.459 242.67 15.6683 225.41 7.38419 202.935C-3.11518 174.478 -2.61172 142.582 10.1395 114.858C16.2816 101.495 25.2615 89.0687 37.5184 80.4783C56.4118 67.2392 81.1635 64.3316 104.451 66.0108C139.098 68.5119 175.667 82.4226 210.497 78.6312C229.72 76.5367 235.587 57.2348 245.519 44.5083C256.751 30.1115 272.038 18.7991 288.945 11.2692C320.086 -2.59732 357.461 -3.90532 389.288 8.67092C423.267 22.0956 452.889 54.8751 450.939 91.9498C450.042 109.104 442.636 126.135 446.06 142.988C450.362 164.137 467.544 183.413 479.993 200.638C493.742 219.665 502.063 242.361 503.701 265.516C505.55 291.764 498.776 318.517 484.625 341H50.6174C44.3196 330.412 40.2828 318.587 38.6718 306.479Z" fill="url(#paint0_linear)"/>
<defs>
<linearGradient id="paint0_linear" x1="472.036" y1="212.674" x2="69.6992" y2="83.9874" gradientUnits="userSpaceOnUse">
<stop offset="0.0964563" stop-color="#E2E2E2" stop-opacity="0.8"/>
<stop offset="0.872811" stop-color="white" stop-opacity="0.51"/>
</linearGradient>
</defs>
</svg>
