<svg width="826" height="350" viewBox="0 0 826 350" fill="none" xmlns="http://www.w3.org/2000/svg">
<path opacity="0.81" d="M67.7524 505.36C64.6411 481.987 71.9381 460.281 70.9759 437.572C69.1316 393.898 27.4507 363.748 12.937 324.489C-5.4577 274.779 -4.57568 219.063 17.7642 170.634C28.5252 147.292 44.2578 125.586 65.7316 110.58C98.8325 87.454 142.197 82.3749 182.996 85.3081C243.697 89.6771 307.766 113.976 368.787 107.354C402.466 103.695 412.745 69.9782 430.146 47.7475C449.824 22.599 476.606 2.83837 506.227 -10.3148C560.785 -34.537 626.265 -36.8218 682.027 -14.8536C741.557 8.59674 793.454 65.8562 790.038 130.619C788.466 160.584 775.492 190.333 781.49 219.773C789.027 256.716 819.129 290.386 840.94 320.475C865.028 353.713 879.606 393.358 882.476 433.805C885.716 479.656 873.848 526.387 849.055 565.661H88.681C77.6473 547.167 70.5749 526.51 67.7524 505.36Z" fill="url(#paint0_linear)"/>
<defs>
<linearGradient id="paint0_linear" x1="768.5" y1="442.5" x2="32.5" y2="160" gradientUnits="userSpaceOnUse">
<stop offset="0.261413" stop-color="#ECEEF1" stop-opacity="0.8"/>
<stop offset="0.883564" stop-color="white" stop-opacity="0.49"/>
</linearGradient>
</defs>
</svg>
