<svg width="342" height="288" viewBox="0 0 342 288" fill="none" xmlns="http://www.w3.org/2000/svg">
<path opacity="0.81" d="M305.553 14.775C307.227 26.7036 303.302 37.7813 303.819 49.3712C304.811 71.6605 327.233 87.048 335.041 107.084C344.936 132.454 344.461 160.889 332.444 185.605C326.655 197.518 318.192 208.596 306.64 216.254C288.834 228.057 265.507 230.649 243.559 229.152C210.906 226.922 176.441 214.521 143.615 217.901C125.498 219.768 119.968 236.975 110.608 248.321C100.022 261.156 85.6152 271.241 69.681 277.954C40.3318 290.316 5.10753 291.482 -24.8887 280.27C-56.9124 268.302 -84.8295 239.079 -82.9919 206.027C-82.1465 190.734 -75.1672 175.552 -78.3937 160.527C-82.4484 141.672 -98.6414 124.488 -110.374 109.132C-123.332 92.1692 -131.174 71.9362 -132.718 51.2935C-134.461 27.8932 -128.077 4.04381 -114.739 -16.0001L294.295 -16C300.23 -6.5611 304.035 3.98087 305.553 14.775Z" fill="url(#paint0_linear)"/>
<defs>
<linearGradient id="paint0_linear" x1="181.517" y1="324.389" x2="102.795" y2="88.4292" gradientUnits="userSpaceOnUse">
<stop offset="0.0728352" stop-color="white" stop-opacity="0.55"/>
<stop offset="0.917746" stop-color="#DADADA"/>
</linearGradient>
</defs>
</svg>
